<?xml version="1.0" encoding="utf-8"?>
<!-- Generator: Adobe Illustrator 24.0.2, SVG Export Plug-In . SVG Version: 6.00 Build 0)  -->
<svg version="1.1" xmlns="http://www.w3.org/2000/svg" xmlns:xlink="http://www.w3.org/1999/xlink" x="0px" y="0px"
	 viewBox="0 0 25 25" style="enable-background:new 0 0 25 25;" xml:space="preserve">
<g id="Layer_8">
	<path d="M6.4,7.5c-0.3,0-0.5-0.1-0.7-0.3L3.4,4.9l0.7-0.7l2.3,2.3l5-5l0.7,0.7l-5,5C6.9,7.4,6.7,7.5,6.4,7.5z M6.4,15.5
		c-0.3,0-0.5-0.1-0.7-0.3l-2.3-2.3l0.7-0.7l2.3,2.3l5-5l0.7,0.7l-5,5C6.9,15.4,6.7,15.5,6.4,15.5z M6.4,23.5c-0.3,0-0.5-0.1-0.7-0.3
		l-2.3-2.3l0.7-0.7l2.3,2.3l5-5l0.7,0.7l-5,5C6.9,23.4,6.7,23.5,6.4,23.5z M12,6h11v0.9H12V6z M12,22h11v0.9H12V22z M12,14h11v0.9
		H12V14z"/>
</g>
</svg>
