
<svg version="1.1" xmlns="http://www.w3.org/2000/svg" xmlns:xlink="http://www.w3.org/1999/xlink" x="0px" y="0px"
	 viewBox="0 0 25 25" style="enable-background:new 0 0 25 25;" xml:space="preserve">
<g>
	<path d="M20.7,10.9v12.5H0.8V3.5h19.8v1.3l-2.5,2.5V6H3.3v14.9h14.9v-7.5L20.7,10.9z M8.1,11.1L6.3,9.3L4.6,11l1.8,1.8L8.1,11.1z
		 M10.8,13.8l-1.8-1.8l-1.7,1.7l1.8,1.8L10.8,13.8z M16.3,13.9l-1.7-1.7l-1.8,1.8l1.7,1.7L16.3,13.9z M19.1,11.1l-1.7-1.7l-1.8,1.8
		l1.7,1.7L19.1,11.1z M21.8,8.4l-1.7-1.7l-1.8,1.8l1.7,1.7L21.8,8.4z M24.6,5.6l-1.7-1.7l-1.8,1.8l1.7,1.7L24.6,5.6z M12.7,17.5
		l0.9-0.9l-1.8-1.8l-1.7,1.7l0.9,0.9C11.5,17.9,12.3,17.9,12.7,17.5z"
		/>
</g>
</svg>
